<?xml version="1.0" encoding="UTF-8"?>
<svg width="28px" height="34px" viewBox="0 0 28 34" version="1.1" xmlns="http://www.w3.org/2000/svg" xmlns:xlink="http://www.w3.org/1999/xlink">
    <!-- Generator: Sketch 46.2 (44496) - http://www.bohemiancoding.com/sketch -->
    <title>File Icon</title>
    <desc>Created with Sketch.</desc>
    <defs>
        <path d="M16.6666667,0 L3.33333333,0 C1.5,0 0.0166666667,1.5 0.0166666667,3.33333333 L0,30 C0,31.8333333 1.48333333,33.3333333 3.31666667,33.3333333 L23.3333333,33.3333333 C25.1666667,33.3333333 26.6666667,31.8333333 26.6666667,30 L26.6666667,10 L16.6666667,0 Z M20,26.6666667 L6.66666667,26.6666667 L6.66666667,23.3333333 L20,23.3333333 L20,26.6666667 Z M20,20 L6.66666667,20 L6.66666667,16.6666667 L20,16.6666667 L20,20 Z M15,11.6666667 L15,2.5 L24.1666667,11.6666667 L15,11.6666667 Z" id="path-1"></path>
    </defs>
    <g id="3.1-Ticket" stroke="none" stroke-width="1" fill="none" fill-rule="evenodd">
        <g id="3.1-Ticket-(Open-Drawers)---M-@2x" transform="translate(-40.000000, -741.000000)">
            <g id="Documents" transform="translate(20.000000, 666.000000)">
                <g id="File" transform="translate(0.000000, 72.000000)">
                    <g id="Icon-/-File" transform="translate(14.000000, 0.000000)">
                        <g transform="translate(6.666667, 3.333333)">
                            <mask id="mask-2" fill="white">
                                <use xlink:href="#path-1"></use>
                            </mask>
                            <g id="Shape" fill-rule="nonzero"></g>
                            <g id="Colour-/-Red" mask="url(#mask-2)" fill="#E64131">
                                <g transform="translate(-6.666667, -3.333333)" id="Shape">
                                    <polygon points="0 0 40 0 40 40 0 40"></polygon>
                                </g>
                            </g>
                        </g>
                    </g>
                </g>
            </g>
        </g>
    </g>
</svg>