<?xml version="1.0" encoding="UTF-8"?>
<svg width="24px" height="24px" viewBox="0 0 24 24" version="1.1" xmlns="http://www.w3.org/2000/svg" xmlns:xlink="http://www.w3.org/1999/xlink">
    <!-- Generator: Sketch 47 (45396) - http://www.bohemiancoding.com/sketch -->
    <title>Icon / Risk Management</title>
    <desc>Created with Sketch.</desc>
    <defs>
        <path d="M12.73,0 L5.27,0 L0,5.27 L0,12.73 L5.27,18 L12.73,18 L18,12.73 L18,5.27 L12.73,0 Z M9,14.3 C8.28,14.3 7.7,13.72 7.7,13 C7.7,12.28 8.28,11.7 9,11.7 C9.72,11.7 10.3,12.28 10.3,13 C10.3,13.72 9.72,14.3 9,14.3 Z M10,10 L8,10 L8,4 L10,4 L10,10 Z" id="path-1"></path>
    </defs>
    <g id="Symbols" stroke="none" stroke-width="1" fill="none" fill-rule="evenodd">
        <g id="Icon-/-Risk-Management">
            <g transform="translate(3.000000, 3.000000)">
                <mask id="mask-2" fill="white">
                    <use xlink:href="#path-1"></use>
                </mask>
                <use id="Shape" fill="#000000" fill-rule="nonzero" xlink:href="#path-1"></use>
                <g id="Colour-/-Charcoal" mask="url(#mask-2)" fill="#636777">
                    <g transform="translate(-3.000000, -3.000000)" id="Shape">
                        <polygon points="0 0 24 0 24 24 0 24"></polygon>
                    </g>
                </g>
            </g>
        </g>
    </g>
</svg>