<?xml version="1.0" encoding="UTF-8"?>
<svg width="200px" height="40px" viewBox="0 0 200 40" version="1.1" xmlns="http://www.w3.org/2000/svg" xmlns:xlink="http://www.w3.org/1999/xlink">
    <!-- Generator: Sketch 46.2 (44496) - http://www.bohemiancoding.com/sketch -->
    <title>Warwick Estates Logo</title>
    <desc>Created with Sketch.</desc>
    <defs></defs>
    <g id="Symbols" stroke="none" stroke-width="1" fill="none" fill-rule="evenodd">
        <g id="Header/-Desktop-Logged-Out---D" transform="translate(-500.000000, -29.000000)" fill-rule="nonzero">
            <g id="Warwick-Estates-Logo" transform="translate(500.000000, 29.000000)">
                <rect id="Rectangle-path" fill="#DF3528" transform="translate(108.597140, 20.761420) rotate(-45.000000) translate(-108.597140, -20.761420) " x="104.997175" y="-2.83835367" width="7.19993095" height="47.1995473"></rect>
                <rect id="Rectangle-path" fill="#DF3528" transform="translate(88.314310, 20.807650) rotate(-45.000000) translate(-88.314310, -20.807650) " x="84.7143445" y="-2.79212367" width="7.19993095" height="47.1995473"></rect>
                <rect id="Rectangle-path" fill="#DF3528" transform="translate(68.102190, 20.783070) rotate(-45.000000) translate(-68.102190, -20.783070) " x="64.5022245" y="-2.81670367" width="7.19993095" height="47.1995473"></rect>
                <polygon id="Shape" fill="#DF3528" points="33.4 1.6 33.4 1.6 18.7 16.2 18.7 11 8.7 11 8.7 26.2 0 34.9 5.1 40 33.4 11.7 61.6 40 66.7 34.9"></polygon>
                <polygon id="Shape" fill="#000000" points="124.9 13.2 129.8 0.7 134.4 13.2 139 1.5 140.9 1.5 134.4 17.9 129.8 5.4 124.9 17.9 118.9 1.5 120.8 1.5"></polygon>
                <path d="M149.9,7.3 L149.9,17 L148.2,17 L148.2,15.6 C147.3,16.7 146.2,17.2 144.9,17.2 C142.2,17.2 140.2,15 140.2,12 C140.2,9.1 142.2,6.9 144.8,6.9 C146.2,6.9 147.2,7.4 148.2,8.5 L148.2,7.3 L149.9,7.3 Z M141.9,12.1 C141.9,14.2 143.2,15.8 145.1,15.8 C147,15.8 148.4,14.3 148.4,12.2 C148.4,10.1 147.1,8.6 145.2,8.6 C143.3,8.6 141.9,10.2 141.9,12.1 Z" id="Shape" fill="#000000"></path>
                <path d="M154.7,7.3 L154.7,8.4 C155.6,7.4 156,7.1 156.9,7.1 C157.4,7.1 157.8,7.2 158.4,7.5 L157.6,9 C157.2,8.7 157,8.7 156.6,8.7 C156,8.7 155.3,9.1 155.1,9.6 C154.8,10.1 154.7,10.8 154.7,11.9 L154.7,17 L153,17 L153,7.3 L154.7,7.3 Z" id="Shape" fill="#000000"></path>
                <polygon id="Shape" fill="#000000" points="164.1 13.9 167.1 6.6 170.1 13.9 173 7.3 174.9 7.3 170.1 17.7 167.1 10.5 164.1 17.7 159.3 7.3 161.2 7.3"></polygon>
                <path d="M178.8,3.7 C178.8,4.4 178.3,4.9 177.6,4.9 C176.9,4.9 176.4,4.4 176.4,3.7 C176.4,3.1 176.9,2.5 177.6,2.5 C178.3,2.5 178.8,3 178.8,3.7 Z M178.4,17.1 L176.7,17.1 L176.7,7.3 L178.4,7.3 L178.4,17.1 Z" id="Shape" fill="#000000"></path>
                <path d="M189.2,10.3 C188.1,9.1 187.3,8.7 186.1,8.7 C184.2,8.7 182.7,10.3 182.7,12.3 C182.7,14.3 184.2,15.9 186.1,15.9 C187.3,15.9 188.2,15.5 189.3,14.2 L189.3,16.4 C188.1,17.1 187.3,17.4 186.2,17.4 C183.3,17.4 181.1,15.2 181.1,12.3 C181.1,9.4 183.3,7.2 186.3,7.2 C187.4,7.2 188.3,7.5 189.3,8.1 L189.3,10.3 L189.2,10.3 Z" id="Shape" fill="#000000"></path>
                <polygon id="Shape" fill="#000000" points="193.5 10.9 197 7.3 199.2 7.3 195.1 11.4 200 17 197.8 17 193.9 12.6 193.5 13 193.5 17 191.8 17 191.8 0 193.5 0"></polygon>
                <polygon id="Shape" fill="#000000" points="142.4 24.5 142.4 29.2 148.6 29.2 148.6 30.8 142.4 30.8 142.4 36.9 148.7 36.9 148.7 38.5 140.6 38.5 140.6 22.9 148.7 22.9 148.7 24.5"></polygon>
                <path d="M155.4,31.1 C155,30.4 154.6,30.1 154,30.1 C153.4,30.1 152.8,30.6 152.8,31.2 C152.8,31.8 153.1,32.1 154.4,32.6 C155.5,33.1 155.8,33.2 156.2,33.5 C156.9,34 157.3,34.7 157.3,35.6 C157.3,37.4 155.8,38.8 154,38.8 C152.4,38.8 151.2,38 150.6,36.3 L152.1,35.7 C152.6,36.9 153.2,37.3 154,37.3 C154.9,37.3 155.6,36.6 155.6,35.8 C155.6,35.1 155.2,34.7 154,34.2 C151.8,33.2 151.2,32.7 151.2,31.4 C151.2,29.9 152.4,28.7 154,28.7 C155.2,28.7 156.1,29.3 156.7,30.5 L155.4,31.1 Z" id="Shape" fill="#000000"></path>
                <polygon id="Shape" fill="#000000" points="161.5 38.5 159.8 38.5 159.8 30.3 158.8 30.3 158.8 28.8 159.8 28.8 159.8 25.3 161.5 25.3 161.5 28.8 163.2 28.8 163.2 30.3 161.5 30.3"></polygon>
                <path d="M174,28.8 L174,38.5 L172.3,38.5 L172.3,37.1 C171.4,38.2 170.3,38.7 169,38.7 C166.3,38.7 164.3,36.5 164.3,33.5 C164.3,30.6 166.3,28.4 168.9,28.4 C170.3,28.4 171.3,28.9 172.3,30 L172.3,28.6 L174,28.6 L174,28.8 Z M166,33.6 C166,35.7 167.3,37.3 169.2,37.3 C171.1,37.3 172.5,35.8 172.5,33.7 C172.5,31.6 171.2,30.1 169.3,30.1 C167.4,30.1 166,31.6 166,33.6 Z" id="Shape" fill="#000000"></path>
                <polygon id="Shape" fill="#000000" points="178.8 38.5 177.1 38.5 177.1 30.3 176.1 30.3 176.1 28.8 177.1 28.8 177.1 25.3 178.8 25.3 178.8 28.8 180.5 28.8 180.5 30.3 178.8 30.3"></polygon>
                <path d="M183.3,34 C183.4,36 184.6,37.3 186.4,37.3 C187.7,37.3 188.5,36.8 189.4,35.3 L190.8,36.1 C189.7,38 188.3,38.9 186.3,38.9 C183.5,38.9 181.5,36.8 181.5,33.8 C181.5,30.8 183.4,28.7 186.2,28.7 C189,28.7 190.8,30.7 190.8,33.8 L190.8,34 L183.3,34 Z M189.2,32.6 C188.9,31.1 187.8,30.1 186.3,30.1 C184.9,30.1 183.7,31.2 183.4,32.6 L189.2,32.6 Z" id="Shape" fill="#000000"></path>
                <path d="M197.4,31.1 C197,30.4 196.6,30.1 196,30.1 C195.4,30.1 194.8,30.6 194.8,31.2 C194.8,31.8 195.1,32.1 196.4,32.6 C197.5,33.1 197.8,33.2 198.2,33.5 C198.9,34 199.3,34.7 199.3,35.6 C199.3,37.4 197.8,38.8 196,38.8 C194.4,38.8 193.2,38 192.6,36.3 L194.1,35.7 C194.6,36.9 195.2,37.3 196,37.3 C196.9,37.3 197.6,36.6 197.6,35.8 C197.6,35.1 197.2,34.7 196,34.2 C193.8,33.2 193.2,32.7 193.2,31.4 C193.2,29.9 194.4,28.7 196,28.7 C197.2,28.7 198.1,29.3 198.7,30.5 L197.4,31.1 Z" id="Shape" fill="#000000"></path>
            </g>
        </g>
    </g>
</svg>