<?xml version="1.0" encoding="utf-8"?>
<!-- Generator: Adobe Illustrator 19.2.1, SVG Export Plug-In . SVG Version: 6.00 Build 0)  -->
<svg version="1.1" id="Layer_2" xmlns="http://www.w3.org/2000/svg" xmlns:xlink="http://www.w3.org/1999/xlink" x="0px" y="0px"
	 width="200px" height="40px" viewBox="0 0 200 40" style="enable-background:new 0 0 200 40;" xml:space="preserve">
<style type="text/css">
	.st0{fill:#DF3528;}
</style>
<rect x="105" y="-2.8" transform="matrix(0.7071 -0.7071 0.7071 0.7071 17.0984 82.8448)" class="st0" width="7.2" height="47.2"/>
<rect x="84.7" y="-2.8" transform="matrix(0.7071 -0.7071 0.7071 0.7071 11.1697 68.5369)" class="st0" width="7.2" height="47.2"/>
<rect x="64.5" y="-2.8" transform="matrix(0.7071 -0.7071 0.7071 0.7071 5.241 54.2289)" class="st0" width="7.2" height="47.2"/>
<polygon class="st0" points="33.4,1.6 33.4,1.6 18.7,16.2 18.7,11 8.7,11 8.7,26.2 0,34.9 5.1,40 33.4,11.7 61.6,40 66.7,34.9 "/>
<path d="M124.9,13.2l4.9-12.5l4.6,12.5l4.6-11.7h1.9l-6.5,16.4l-4.6-12.5l-4.9,12.5l-6-16.4h1.9L124.9,13.2z"/>
<path d="M149.9,7.3v9.7h-1.7v-1.4c-0.9,1.1-2,1.6-3.3,1.6c-2.7,0-4.7-2.2-4.7-5.2c0-2.9,2-5.1,4.6-5.1c1.4,0,2.4,0.5,3.4,1.6V7.3
	H149.9z M141.9,12.1c0,2.1,1.3,3.7,3.2,3.7c1.9,0,3.3-1.5,3.3-3.6c0-2.1-1.3-3.6-3.2-3.6C143.3,8.6,141.9,10.2,141.9,12.1z"/>
<path d="M154.7,7.3v1.1c0.9-1,1.3-1.3,2.2-1.3c0.5,0,0.9,0.1,1.5,0.4L157.6,9c-0.4-0.3-0.6-0.3-1-0.3c-0.6,0-1.3,0.4-1.5,0.9
	c-0.3,0.5-0.4,1.2-0.4,2.3v5.1h-1.7V7.3H154.7z"/>
<path d="M164.1,13.9l3-7.3l3,7.3l2.9-6.6h1.9l-4.8,10.4l-3-7.2l-3,7.2l-4.8-10.4h1.9L164.1,13.9z"/>
<path d="M178.8,3.7c0,0.7-0.5,1.2-1.2,1.2c-0.7,0-1.2-0.5-1.2-1.2c0-0.6,0.5-1.2,1.2-1.2C178.3,2.5,178.8,3,178.8,3.7z M178.4,17.1
	h-1.7V7.3h1.7V17.1z"/>
<path d="M189.2,10.3c-1.1-1.2-1.9-1.6-3.1-1.6c-1.9,0-3.4,1.6-3.4,3.6c0,2,1.5,3.6,3.4,3.6c1.2,0,2.1-0.4,3.2-1.7v2.2
	c-1.2,0.7-2,1-3.1,1c-2.9,0-5.1-2.2-5.1-5.1c0-2.9,2.2-5.1,5.2-5.1c1.1,0,2,0.3,3,0.9V10.3z"/>
<path d="M193.5,10.9l3.5-3.6h2.2l-4.1,4.1l4.9,5.6h-2.2l-3.9-4.4l-0.4,0.4v4h-1.7V0h1.7V10.9z"/>
<path d="M142.4,24.5v4.7h6.2v1.6h-6.2v6.1h6.3v1.6h-8.1V22.9h8.1v1.6H142.4z"/>
<path d="M155.4,31.1c-0.4-0.7-0.8-1-1.4-1c-0.6,0-1.2,0.5-1.2,1.1c0,0.6,0.3,0.9,1.6,1.4c1.1,0.5,1.4,0.6,1.8,0.9
	c0.7,0.5,1.1,1.2,1.1,2.1c0,1.8-1.5,3.2-3.3,3.2c-1.6,0-2.8-0.8-3.4-2.5l1.5-0.6c0.5,1.2,1.1,1.6,1.9,1.6c0.9,0,1.6-0.7,1.6-1.5
	c0-0.7-0.4-1.1-1.6-1.6c-2.2-1-2.8-1.5-2.8-2.8c0-1.5,1.2-2.7,2.8-2.7c1.2,0,2.1,0.6,2.7,1.8L155.4,31.1z"/>
<path d="M161.5,38.5h-1.7v-8.2h-1v-1.5h1v-3.5h1.7v3.5h1.7v1.5h-1.7V38.5z"/>
<path d="M174,28.8v9.7h-1.7v-1.4c-0.9,1.1-2,1.6-3.3,1.6c-2.7,0-4.7-2.2-4.7-5.2c0-2.9,2-5.1,4.6-5.1c1.4,0,2.4,0.5,3.4,1.6v-1.4
	H174z M166,33.6c0,2.1,1.3,3.7,3.2,3.7c1.9,0,3.3-1.5,3.3-3.6c0-2.1-1.3-3.6-3.2-3.6C167.4,30.1,166,31.6,166,33.6z"/>
<path d="M178.8,38.5h-1.7v-8.2h-1v-1.5h1v-3.5h1.7v3.5h1.7v1.5h-1.7V38.5z"/>
<path d="M183.3,34c0.1,2,1.3,3.3,3.1,3.3c1.3,0,2.1-0.5,3-2l1.4,0.8c-1.1,1.9-2.5,2.8-4.5,2.8c-2.8,0-4.8-2.1-4.8-5.1
	c0-3,1.9-5.1,4.7-5.1c2.8,0,4.6,2,4.6,5.1V34H183.3z M189.2,32.6c-0.3-1.5-1.4-2.5-2.9-2.5c-1.4,0-2.6,1.1-2.9,2.5H189.2z"/>
<path d="M197.4,31.1c-0.4-0.7-0.8-1-1.4-1c-0.6,0-1.2,0.5-1.2,1.1c0,0.6,0.3,0.9,1.6,1.4c1.1,0.5,1.4,0.6,1.8,0.9
	c0.7,0.5,1.1,1.2,1.1,2.1c0,1.8-1.5,3.2-3.3,3.2c-1.6,0-2.8-0.8-3.4-2.5l1.5-0.6c0.5,1.2,1.1,1.6,1.9,1.6c0.9,0,1.6-0.7,1.6-1.5
	c0-0.7-0.4-1.1-1.6-1.6c-2.2-1-2.8-1.5-2.8-2.8c0-1.5,1.2-2.7,2.8-2.7c1.2,0,2.1,0.6,2.7,1.8L197.4,31.1z"/>
</svg>
